<?xml version="1.0" encoding="utf-8"?>
<!DOCTYPE svg PUBLIC "-//W3C//DTD SVG 20010904//EN" "http://www.w3.org/TR/2001/REC-SVG-20010904/DTD/svg10.dtd">
<svg version="1.0" xmlns="http://www.w3.org/2000/svg" width="1201px" height="383px" viewBox="0 0 1201 383" preserveAspectRatio="xMidYMid meet">
 <g fill="#9acc2e">
  <path d="M266.2 298.8 c-1.5 -0.4 -3.8 -1.8 -4.9 -3 -1.8 -2 -21.9 -38.2 -29.7 -53.7 -4.3 -8.3 -5.1 -8.1 30.5 -8.8 32.5 -0.7 33.8 -0.5 38 4.3 2.9 3.4 30.9 56.1 30.9 58.3 0 1.3 -0.8 2.2 -2.2 2.6 -3.8 0.8 -59.6 1.1 -62.6 0.3z"/>
  <path d="M453 250.2 c0 -40 0.3 -49.8 1.5 -54.5 5 -19.3 21.4 -33.8 41.5 -36.8 14.1 -2.2 29 2.6 40 12.7 11 10.3 16 21.3 16 35.8 0 19.1 -9.8 35.3 -26.3 43.7 -12.9 6.6 -28 7.6 -40.2 2.8 l-6 -2.4 -0.3 -12 -0.3 -12 3.3 3.2 c7.8 7.6 22.8 10.1 32.9 5.6 6.3 -2.8 12.5 -8.6 15.7 -14.7 2.3 -4.4 2.7 -6.3 2.7 -13.6 0 -10.4 -2.2 -15.8 -9 -22.4 -6.5 -6.3 -13.8 -8.9 -23.5 -8.4 -12.2 0.7 -21.1 6.6 -26.2 17.3 l-2.8 6 0 49.3 0 49.2 -9.5 0 -9.5 0 0 -48.8z"/>
  <path d="M561.2 249.3 c0.4 -44.5 0.6 -50.4 2.2 -55.3 11.9 -36.6 56.4 -47.6 83.1 -20.6 9.7 9.8 14.5 21.2 14.5 34.1 0 22.8 -17.3 43.9 -39.7 48.6 -7.7 1.5 -19.3 0.6 -27 -2.2 l-6.3 -2.3 0 -11.4 0 -11.3 3.3 2.5 c6.3 4.8 12.6 7 20.4 7 6.2 0 8 -0.4 13.9 -3.4 15.1 -7.7 21 -24.4 14.2 -40.2 -2.6 -6.2 -11.1 -14 -17.4 -16.2 -6.1 -2 -15.7 -2 -21.8 0 -6.4 2.2 -14.7 10 -17.7 16.6 l-2.4 5.3 -0.3 49.3 -0.3 49.2 -9.5 0 -9.5 0 0.3 -49.7z"/>
  <path d="M341 205.7 c0 -43.1 0.2 -51.1 1.6 -55.8 9.1 -30.9 42.5 -45.7 70.8 -31.4 11.4 5.8 20.8 16.8 24.5 29 1.7 5.5 2 11.2 2.6 57.3 l0.8 51.2 -9.7 0 -9.6 0 0 -32 0 -32 -25 0 -25 0 0 -9.5 0 -9.5 25.1 0 25.2 0 -0.6 -8.7 c-0.7 -10.8 -2 -14.8 -6.6 -20.9 -6.7 -8.8 -18.7 -13.3 -30.1 -11.2 -7 1.2 -12.7 4.6 -17.8 10.3 -7.3 8.3 -7.2 7.7 -7.2 63.7 l0 49.8 -9.5 0 -9.5 0 0 -50.3z"/>
  <path d="M669 247 l0 -9 27.4 0 c15.4 0 28.6 -0.4 30 -1 3.5 -1.3 3.6 -6.3 0.4 -8.4 -1.3 -0.8 -13.1 -6.5 -26.2 -12.6 -13.2 -6.1 -25.4 -12.1 -27.2 -13.5 -4.6 -3.5 -8.4 -11.7 -8.4 -18 0 -6.4 3.8 -14.3 8.5 -18 6.8 -5.2 9.4 -5.5 40.6 -5.5 l28.9 0 0 9.5 0 9.5 -28.6 0.2 c-31.2 0.3 -31.5 0.4 -30.1 5.9 0.5 2 4.8 4.3 26.8 14.4 19 8.7 27.2 13 29.9 15.6 10.8 10.5 8.6 28.3 -4.4 36.4 l-4.9 3 -31.4 0.3 -31.3 0.3 0 -9.1z"/>
  <path d="M103.4 234 c-2.2 -1.1 -5.2 -3.3 -6.6 -4.8 -3.6 -3.9 -51.8 -95.4 -51.8 -98.4 0 -5.7 -1.1 -5.6 55.5 -5.9 57.8 -0.4 55.5 -0.6 62.3 6.4 4.3 4.4 52.2 95.1 52.2 98.7 0 6.1 0.8 6 -56 6 -49.7 0 -51.6 -0.1 -55.6 -2z"/>
 </g>
 <g fill="#3db0f5">
  <path d="M210.6 349.3 c-1.3 -2.1 -8.5 -15.2 -16 -29.1 -10.9 -20.2 -13.6 -26 -13.6 -29.1 0 -4.1 2.2 -7.2 29.6 -41.8 8.3 -10.4 8.7 -10.8 11.1 -9.4 1 0.5 8.6 13.7 17 29.3 11.9 21.9 15.3 29.1 15.3 32 0 3.2 -1.8 6 -14.6 22.5 -18.8 24.1 -23.2 29.3 -25 29.3 -0.7 0 -2.4 -1.7 -3.8 -3.7z"/>
  <path d="M916 278.6 l0 -20.3 -6 -2.2 c-8.6 -3.2 -16.9 -11.1 -21.7 -20.9 l-3.8 -7.6 -0.3 -34.3 -0.3 -34.3 9.5 0 9.6 0 0 32.3 c0 36.6 0.2 37.3 8 44 8.5 7.2 20.5 7.2 29 -0.1 7.8 -6.6 8 -7.3 8 -43.9 l0 -32.3 9.5 0 9.6 0 -0.3 34.3 c-0.3 33.4 -0.4 34.3 -2.7 40.2 -3.4 8.6 -14.3 19.3 -22.8 22.6 l-6.3 2.4 0 20.2 0 20.3 -9.5 0 -9.5 0 0 -20.4z"/>
  <path d="M1014.8 255.4 c-8.5 -2 -15.5 -5.9 -22.4 -12.6 -19.7 -18.9 -20.6 -48.9 -2.2 -68.4 22.7 -24 60.1 -20.7 78.2 6.8 6.7 10.2 8.7 8.1 -25.1 27.4 l-29.7 17.1 -4.3 -7.3 c-2.4 -4 -4.3 -7.7 -4.3 -8.2 0 -0.5 9.3 -6.3 20.8 -12.7 11.4 -6.5 20.9 -12 21.2 -12.2 1.1 -1 -5.6 -5.2 -10.8 -6.8 -11.8 -3.7 -25 -0.1 -33 9 -4.9 5.6 -7.2 11.9 -7.2 20 0 9.2 2.4 15.1 8.9 21.6 7.1 7 13.1 9.3 23.4 8.7 12.1 -0.6 21.4 -6.8 26.4 -17.5 l2.4 -5.3 9.5 0 c5.2 0 9.4 0.1 9.4 0.3 0 0.2 -0.7 2.8 -1.6 5.8 -7.4 25.2 -34 40.5 -59.6 34.3z"/>
  <path d="M765 205.1 c0 -48.3 0.1 -51.2 2 -57.4 4.2 -13.5 15.5 -25.8 28.9 -31.3 6.2 -2.6 7.7 -2.8 24.4 -3.2 l17.7 -0.4 0 9 0 9 -15.4 0.3 c-15.2 0.4 -15.3 0.4 -22.2 3.9 -4.9 2.5 -7.9 4.9 -10.5 8.3 -4.8 6.4 -5.9 10.3 -6.6 22 l-0.6 9.7 27.2 0 27.1 0 0 9.5 0 9.5 -27 0 -27 0 0 31 0 31 -9 0 -9 0 0 -50.9z"/>
  <path d="M848 184.5 l0 -71.5 9.5 0 9.5 0 0 71.5 0 71.5 -9.5 0 -9.5 0 0 -71.5z"/>
  <path d="M1087 207.5 l0 -48.5 9 0 9 0 0 4.5 c0 2.5 0.5 4.5 1 4.5 0.6 0 2.8 -1.1 4.8 -2.5 5.5 -3.6 14 -6.4 22.1 -7.1 l7.1 -0.7 0 9.7 0 9.6 -4.4 0 c-10.1 0 -20.7 6.3 -26.1 15.3 -3.9 6.8 -4.8 15.5 -4 41 l0.7 22.7 -9.6 0 -9.6 0 0 -48.5z"/>
  <path d="M222.6 223.8 c-1.3 -1.3 -13.8 -23.4 -27.7 -49.1 -23.5 -43.7 -25.2 -47.2 -25.3 -52.1 0 -3.6 0.6 -6.3 2 -8.7 1.1 -1.8 15.2 -20.2 31.3 -40.7 20.9 -26.5 30 -37.4 31.8 -37.8 1.6 -0.5 3.3 0 5 1.2 1.4 1.1 8.2 12.6 15.4 25.9 40.9 75.5 38 69.8 38 75.9 0 3 -0.5 6.5 -1.2 7.8 -1.6 3.1 -58.6 75.8 -61.1 78.1 -2.7 2.3 -5.2 2.2 -8.2 -0.5z"/>
 </g>
</svg>